<?xml version="1.0" standalone="no"?>
<!DOCTYPE svg PUBLIC "-//W3C//DTD SVG 20010904//EN"
 "http://www.w3.org/TR/2001/REC-SVG-20010904/DTD/svg10.dtd">
<svg version="1.0" xmlns="http://www.w3.org/2000/svg"
 width="501.000000pt" height="501.000000pt" viewBox="0 0 501.000000 501.000000"
 preserveAspectRatio="xMidYMid meet">
<metadata>
Created by potrace 1.14, written by Peter Selinger 2001-2017
</metadata>
<g transform="translate(0.000000,501.000000) scale(0.100000,-0.100000)"
fill="#000000" stroke="none">
<path d="M5000 2510 l0 -2500 -2502 -3 -2503 -2 2508 -3 2507 -2 0 2505 c0
1378 -2 2505 -5 2505 -3 0 -5 -1125 -5 -2500z"/>
<path d="M2293 4324 c-189 -23 -396 -82 -564 -161 -533 -252 -907 -732 -1023
-1313 -8 -41 -20 -134 -27 -205 -35 -362 77 -796 289 -1120 589 -903 1811
-1107 2656 -442 745 585 915 1651 390 2438 -304 454 -774 739 -1330 804 -152
18 -240 18 -391 -1z m477 -40 c554 -76 1072 -451 1329 -962 22 -43 56 -120 75
-171 138 -351 153 -774 42 -1152 -148 -506 -525 -928 -1016 -1137 -210 -90
-407 -132 -647 -139 -197 -6 -308 5 -484 48 -671 163 -1198 713 -1328 1384
-77 394 -29 782 139 1131 179 370 466 660 834 839 326 160 672 212 1056 159z"/>
<path d="M2305 4244 c-133 -18 -229 -39 -350 -79 -611 -199 -1067 -731 -1175
-1370 -38 -224 -37 -379 6 -610 137 -752 770 -1334 1536 -1415 336 -35 659 25
973 183 378 189 683 528 839 933 223 579 118 1236 -274 1719 -270 332 -647
554 -1060 624 -199 34 -330 38 -495 15z m452 -35 c231 -31 499 -134 703 -272
343 -231 608 -601 704 -982 48 -189 51 -216 51 -440 0 -191 -3 -235 -23 -335
-95 -470 -375 -878 -773 -1128 -178 -111 -361 -185 -567 -229 -116 -25 -146
-27 -352 -28 -200 0 -237 3 -330 24 -236 52 -436 135 -616 254 -635 421 -914
1193 -699 1930 54 188 148 373 274 542 59 79 249 270 331 332 253 192 559 313
870 343 108 10 311 5 427 -11z"/>
<path d="M2517 3874 c22 -22 24 -31 19 -67 -6 -39 -5 -41 9 -23 22 29 18 69
-8 94 -33 31 -51 27 -20 -4z"/>
<path d="M2200 3860 c0 -5 5 -10 11 -10 5 0 7 5 4 10 -3 6 -8 10 -11 10 -2 0
-4 -4 -4 -10z"/>
<path d="M2418 3864 c-25 -25 6 -114 39 -114 14 0 14 2 -2 14 -12 8 -21 31
-24 61 -3 26 -9 43 -13 39z"/>
<path d="M2761 3863 c0 -4 8 -39 18 -78 13 -48 21 -65 26 -53 9 22 -18 131
-33 136 -7 2 -12 0 -11 -5z"/>
<path d="M2110 3821 c-5 -11 -10 -28 -10 -39 0 -25 44 -72 67 -71 15 0 15 2
-4 11 -28 13 -46 58 -37 91 7 32 -1 35 -16 8z"/>
<path d="M2880 3830 c0 -13 1 -10 -15 -75 -10 -43 -10 -55 0 -55 7 0 15 19 18
45 4 25 9 56 13 70 4 15 2 25 -5 25 -6 0 -11 -4 -11 -10z"/>
<path d="M2726 3745 c-3 -8 -1 -15 4 -15 6 0 10 7 10 15 0 8 -2 15 -4 15 -2 0
-6 -7 -10 -15z"/>
<path d="M3072 3695 c-20 -41 -27 -65 -19 -65 11 0 68 104 67 123 0 22 -19 -1
-48 -58z"/>
<path d="M3149 3694 c-19 -40 -7 -46 17 -8 10 14 13 29 8 34 -5 5 -16 -6 -25
-26z"/>
<path d="M1715 3650 c3 -5 8 -10 11 -10 2 0 4 5 4 10 0 6 -5 10 -11 10 -5 0
-7 -4 -4 -10z"/>
<path d="M1673 3607 c4 -10 7 -21 7 -23 0 -2 17 -4 37 -4 20 0 45 -7 55 -17
22 -20 32 -13 15 11 -7 10 -31 20 -52 23 -22 3 -46 10 -54 17 -12 9 -13 8 -8
-7z"/>
<path d="M3384 3572 c-16 -12 -36 -130 -25 -150 9 -15 10 -14 11 7 0 13 7 50
16 83 16 62 15 72 -2 60z"/>
<path d="M1738 3513 c7 -3 16 -2 19 1 4 3 -2 6 -13 5 -11 0 -14 -3 -6 -6z"/>
<path d="M3265 3510 c-3 -5 -1 -10 4 -10 6 0 11 5 11 10 0 6 -2 10 -4 10 -3 0
-8 -4 -11 -10z"/>
<path d="M2410 3505 c-8 -2 -49 -9 -90 -15 -41 -7 -118 -29 -170 -49 -346
-135 -599 -462 -642 -832 -50 -422 225 -866 636 -1029 487 -193 1036 38 1266
533 272 586 -130 1297 -783 1386 -72 10 -181 13 -217 6z m325 -45 c467 -120
797 -598 736 -1065 -43 -327 -255 -619 -554 -765 -266 -129 -559 -131 -822 -6
-305 145 -525 445 -566 771 -19 154 -1 298 57 450 126 334 427 579 780 635 89
14 276 4 369 -20z"/>
<path d="M1806 2878 c-7 -13 -42 -72 -77 -132 l-63 -109 23 -41 c13 -23 48
-83 78 -133 l54 -93 729 0 c402 0 730 2 730 5 0 2 -31 58 -70 124 -38 66 -70
127 -70 135 0 8 32 69 70 136 39 67 70 124 70 126 0 2 -328 4 -730 4 l-730 0
-14 -22z m858 -205 c2 -12 10 -17 25 -15 31 5 51 -15 51 -52 0 -41 -16 -56
-60 -56 l-35 0 3 76 c3 71 10 90 16 47z m113 5 c-3 -8 -6 -5 -6 6 -1 11 2 17
5 13 3 -3 4 -12 1 -19z m63 -53 c0 -43 -4 -75 -10 -75 -6 0 -10 32 -10 75 0
43 4 75 10 75 6 0 10 -32 10 -75z m-862 3 c12 -35 22 -66 22 -70 0 -17 -18 -7
-23 12 -4 14 -14 20 -35 20 -22 0 -32 -6 -37 -20 -3 -11 -11 -20 -17 -20 -5 0
-8 3 -6 8 2 4 14 35 27 70 13 34 29 62 35 62 7 0 22 -28 34 -62z m187 42 c-3
-5 1 -10 9 -10 9 0 16 -4 16 -10 0 -5 -6 -10 -13 -10 -19 0 -10 -61 12 -78 14
-12 13 -13 -9 -10 -22 3 -26 9 -31 53 -6 53 -3 75 13 75 5 0 6 -4 3 -10z
m-108 -97 c25 -19 43 2 43 50 0 29 3 38 11 30 5 -5 9 -30 7 -54 -3 -42 -4 -44
-38 -47 -41 -4 -60 16 -60 63 0 47 15 53 18 8 2 -21 10 -44 19 -50z m247 55
c14 -41 -6 -78 -42 -78 -35 0 -52 16 -52 51 0 60 75 81 94 27z m187 5 c12 -32
12 -83 0 -83 -6 0 -11 19 -13 43 -2 34 -7 42 -23 42 -16 0 -21 -8 -23 -42 -2
-24 -7 -43 -12 -43 -5 0 -10 19 -12 43 -2 34 -7 42 -23 42 -16 0 -21 -8 -23
-42 -4 -62 -22 -53 -22 10 l0 54 71 0 c66 0 71 -2 80 -24z m113 11 c19 -18 21
-65 4 -82 -19 -19 -66 -15 -78 7 -22 42 -1 91 40 91 10 0 26 -7 34 -16z m180
-40 c-4 -67 -14 -67 -14 0 0 31 4 55 8 52 5 -3 7 -26 6 -52z m160 40 c27 -27
20 -44 -19 -44 -24 0 -35 -5 -35 -15 0 -10 10 -15 30 -15 17 0 30 -4 30 -10 0
-14 -54 -12 -68 2 -7 7 -12 26 -12 43 0 51 41 73 74 39z m101 6 c4 -6 -5 -10
-19 -10 -33 0 -33 -17 -1 -32 38 -17 30 -52 -12 -56 -20 -2 -33 1 -33 8 0 7 8
9 19 5 11 -3 23 0 27 7 4 7 2 14 -5 16 -8 3 -22 13 -33 24 -15 15 -17 22 -7
34 13 16 55 19 64 4z"/>
<path d="M2667 2614 c-5 -29 16 -56 38 -48 9 4 15 19 15 40 0 29 -3 34 -24 34
-17 0 -25 -7 -29 -26z"/>
<path d="M1932 2636 c-10 -23 -9 -26 8 -26 21 0 23 4 11 33 -6 17 -8 16 -19
-7z"/>
<path d="M2237 2634 c-14 -14 -7 -54 12 -63 24 -13 44 8 39 41 -3 23 -36 37
-51 22z"/>
<path d="M2547 2634 c-12 -13 -8 -51 8 -64 21 -18 47 5 43 39 -3 26 -35 41
-51 25z"/>
<path d="M2892 2628 c7 -19 38 -22 38 -4 0 10 -9 16 -21 16 -12 0 -19 -5 -17
-12z"/>
<path d="M1490 3460 c-12 -8 -11 -10 6 -10 26 0 74 -36 74 -56 0 -8 4 -13 9
-10 5 3 7 15 4 25 -10 39 -65 69 -93 51z"/>
<path d="M1430 3402 c0 -5 22 -29 50 -54 41 -37 52 -43 61 -32 9 11 8 14 -3
14 -8 0 -32 18 -53 40 -38 39 -55 49 -55 32z"/>
<path d="M3586 3380 c-2 -8 -9 -42 -15 -75 -6 -33 -14 -71 -18 -85 -5 -21 -4
-23 8 -12 18 17 49 156 38 173 -6 11 -9 11 -13 -1z"/>
<path d="M3480 3299 c0 -5 5 -7 10 -4 6 3 10 8 10 11 0 2 -4 4 -10 4 -5 0 -10
-5 -10 -11z"/>
<path d="M1311 3154 c-65 -14 -78 -20 -70 -29 9 -8 178 28 173 37 -7 10 -25 9
-103 -8z"/>
<path d="M3738 3069 c-15 -21 -39 -41 -53 -45 -14 -3 -24 -11 -23 -16 4 -11 7
-11 46 4 16 6 37 27 49 49 28 52 15 57 -19 8z"/>
<path d="M1350 3060 c0 -5 5 -10 10 -10 6 0 10 5 10 10 0 6 -4 10 -10 10 -5 0
-10 -4 -10 -10z"/>
<path d="M3788 3013 c6 -2 18 -2 25 0 6 3 1 5 -13 5 -14 0 -19 -2 -12 -5z"/>
<path d="M1150 2920 c0 -5 7 -7 15 -4 8 4 15 8 15 10 0 2 -7 4 -15 4 -8 0 -15
-4 -15 -10z"/>
<path d="M1210 2894 c0 -8 5 -12 10 -9 6 4 8 11 5 16 -9 14 -15 11 -15 -7z"/>
<path d="M1137 2871 c-3 -14 7 -21 59 -34 71 -19 84 -21 84 -9 0 5 -25 15 -56
22 -31 8 -62 19 -69 27 -10 10 -14 9 -18 -6z"/>
<path d="M1090 2632 c0 -11 137 -28 147 -18 11 10 0 14 -74 21 -47 4 -73 3
-73 -3z"/>
<path d="M3808 2603 c-21 -2 -38 -10 -38 -16 0 -9 18 -10 75 -3 122 16 89 32
-37 19z"/>
<path d="M3770 2526 c0 -9 5 -16 10 -16 6 0 10 4 10 9 0 6 -4 13 -10 16 -5 3
-10 -1 -10 -9z"/>
<path d="M1188 2395 c-20 -19 -33 -37 -29 -39 11 -7 75 48 70 61 -2 7 -20 -3
-41 -22z"/>
<path d="M1100 2374 c-13 -15 -6 -17 24 -5 17 6 17 8 3 14 -8 3 -21 -1 -27 -9z"/>
<path d="M3760 2326 c0 -12 10 -16 38 -16 20 0 54 -3 75 -6 23 -4 37 -3 37 4
0 6 -21 14 -47 17 -27 3 -60 9 -75 11 -21 4 -28 2 -28 -10z"/>
<path d="M1128 2323 c-41 -4 -53 -23 -15 -23 49 0 127 13 127 21 0 9 -39 9
-112 2z"/>
<path d="M3725 2130 c-4 -6 3 -10 14 -10 25 0 27 6 6 13 -8 4 -17 2 -20 -3z"/>
<path d="M1141 2094 c0 -11 3 -14 6 -6 3 7 2 16 -1 19 -3 4 -6 -2 -5 -13z"/>
<path d="M1220 2067 c-73 -23 -76 -24 -67 -33 11 -11 137 28 137 42 0 8 -1 14
-2 13 -2 0 -32 -10 -68 -22z"/>
<path d="M3765 2076 c-33 -6 -55 -14 -48 -19 15 -10 131 7 145 21 15 15 -13
14 -97 -2z"/>
<path d="M3680 2001 c0 -6 19 -15 43 -21 23 -6 55 -15 70 -20 21 -7 27 -6 24
3 -6 18 -137 54 -137 38z"/>
<path d="M3590 1818 c0 -15 118 -83 127 -74 4 3 4 7 2 9 -19 13 -88 56 -106
66 -18 9 -23 9 -23 -1z"/>
<path d="M1415 1708 c-30 -17 -44 -40 -44 -68 1 -23 1 -23 15 7 7 18 27 39 44
48 16 9 30 18 30 20 0 9 -24 5 -45 -7z"/>
<path d="M1510 1649 c0 -26 -36 -69 -58 -69 -7 0 -12 -4 -12 -10 0 -20 32 -10
61 19 31 31 35 47 19 71 -8 12 -10 10 -10 -11z"/>
<path d="M3440 1622 c0 -14 100 -103 110 -97 5 3 -15 28 -44 55 -52 49 -66 58
-66 42z"/>
<path d="M1697 1473 c-15 -23 -35 -144 -24 -140 6 2 17 32 24 67 13 64 13 94
0 73z"/>
<path d="M3260 1454 c0 -4 16 -29 35 -55 19 -27 35 -54 35 -61 0 -9 3 -9 11
-1 8 8 1 26 -27 67 -35 50 -54 68 -54 50z"/>
<path d="M1728 1370 c-8 -39 -11 -73 -7 -76 5 -3 11 5 14 18 27 122 28 128 17
128 -5 0 -15 -32 -24 -70z"/>
<path d="M3205 1410 c3 -5 8 -10 11 -10 2 0 4 5 4 10 0 6 -5 10 -11 10 -5 0
-7 -4 -4 -10z"/>
<path d="M1570 1406 c0 -2 7 -6 15 -10 8 -3 15 -1 15 4 0 6 -7 10 -15 10 -8 0
-15 -2 -15 -4z"/>
<path d="M3038 1325 c-8 -8 54 -135 65 -135 5 0 7 3 5 8 -1 4 -14 35 -28 70
-24 60 -30 68 -42 57z"/>
<path d="M1991 1288 c-5 -13 -18 -44 -30 -70 -14 -33 -16 -48 -8 -48 15 0 68
128 56 136 -5 3 -13 -5 -18 -18z"/>
<path d="M2967 1277 c-4 -10 -7 -27 -7 -36 0 -28 39 -71 63 -71 22 1 22 1 2
12 -27 15 -39 36 -45 78 -4 27 -7 31 -13 17z"/>
<path d="M1896 1205 c-3 -8 -1 -15 4 -15 6 0 10 7 10 15 0 8 -2 15 -4 15 -2 0
-6 -7 -10 -15z"/>
<path d="M2000 1160 c-13 -8 -12 -10 3 -10 9 0 17 5 17 10 0 12 -1 12 -20 0z"/>
</g>
</svg>
